<svg width="37" height="43" viewBox="0 0 37 43" fill="none" xmlns="http://www.w3.org/2000/svg">
<path d="M19.0619 21.9332V32.4272L28.2398 27.156V16.6621L19.0619 21.9332ZM9.20238 16.6621V27.156L18.3316 32.403V21.909L9.20238 16.6621ZM9.20238 16.6621V27.156L18.3316 32.403V21.909L9.20238 16.6621ZM19.0619 21.9332V32.4272L28.2398 27.156V16.6621L19.0619 21.9332ZM19.0619 21.9332V32.4272L28.2398 27.156V16.6621L19.0619 21.9332ZM9.20238 16.6621V27.156L18.3316 32.403V21.909L9.20238 16.6621ZM9.20238 16.6621V27.156L18.3316 32.403V21.909L9.20238 16.6621ZM19.0619 21.9332V32.4272L28.2398 27.156V16.6621L19.0619 21.9332ZM19.0619 21.9332V32.4272L28.2398 27.156V16.6621L19.0619 21.9332ZM9.20238 16.6621V27.156L18.3316 32.403V21.909L9.20238 16.6621ZM9.20238 16.6621V27.156L18.3316 32.403V21.909L9.20238 16.6621ZM19.0619 21.9332V32.4272L28.2398 27.156V16.6621L19.0619 21.9332ZM19.0619 21.9332V32.4272L28.2398 27.156V16.6621L19.0619 21.9332ZM9.20238 27.156L18.3316 32.403V21.909L9.20238 16.6621V27.156ZM36.1275 10.6413L27.8747 5.92631L27.8016 5.87795L18.6968 0.655151L9.93272 5.68451H9.90837L3.62747 9.28728L0.389648 11.1491V32.1612L9.20238 37.2147L17.723 42.099L18.6724 42.6552L19.6219 42.099L28.2155 37.1664L36.9552 32.1612V11.1491L36.1275 10.6413ZM34.1312 23.6016L28.2398 27.156V33.8538L26.8035 34.6759L19.2567 39.004L18.6968 39.3425L18.1855 39.0524L9.20238 33.9021V27.156L3.23796 23.5533V12.7691L4.06568 12.2855L11.3447 8.10248L12.7567 7.30455L18.6968 10.7622L9.56755 16.0092L18.7211 21.2562L27.8747 16.0092L18.7211 10.7622L24.8803 7.4738L26.414 8.34427L33.4009 12.3581L34.0825 12.745V23.6016H34.1312ZM19.0619 32.4272L28.2398 27.156V16.6621L19.0619 21.9332V32.4272ZM9.20238 27.156L18.3316 32.403V21.909L9.20238 16.6621V27.156ZM9.20238 16.6621V27.156L18.3316 32.403V21.909L9.20238 16.6621ZM19.0619 21.9332V32.4272L28.2398 27.156V16.6621L19.0619 21.9332ZM19.0619 21.9332V32.4272L28.2398 27.156V16.6621L19.0619 21.9332ZM9.20238 16.6621V27.156L18.3316 32.403V21.909L9.20238 16.6621ZM9.20238 16.6621V27.156L18.3316 32.403V21.909L9.20238 16.6621ZM19.0619 21.9332V32.4272L28.2398 27.156V16.6621L19.0619 21.9332ZM19.0619 21.9332V32.4272L28.2398 27.156V16.6621L19.0619 21.9332ZM9.20238 16.6621V27.156L18.3316 32.403V21.909L9.20238 16.6621ZM9.20238 16.6621V27.156L18.3316 32.403V21.909L9.20238 16.6621ZM19.0619 21.9332V32.4272L28.2398 27.156V16.6621L19.0619 21.9332ZM19.0619 21.9332V32.4272L28.2398 27.156V16.6621L19.0619 21.9332ZM9.20238 16.6621V27.156L18.3316 32.403V21.909L9.20238 16.6621Z" fill="url(#paint0_linear)"/>
<path opacity="0.6" d="M12.759 7.3288L11.347 8.1509L4.06801 12.3098L3.60547 9.28734L9.91071 5.6604H9.93506L12.759 7.3288Z" fill="url(#paint1_linear)"/>
<path opacity="0.6" d="M3.23985 13.3253V23.5532L0.367188 21.909V12.8417L3.23985 13.3253Z" fill="url(#paint2_linear)"/>
<path opacity="0.6" d="M18.1872 39.0767L17.7246 42.0991L9.17969 37.1906V33.9264L18.1872 39.0767Z" fill="url(#paint3_linear)"/>
<path opacity="0.6" d="M28.2419 33.878V37.1664L19.6482 42.0991L19.2344 39.0282L26.8055 34.7001L28.2419 33.878Z" fill="url(#paint4_linear)"/>
<path opacity="0.6" d="M36.9811 12.745V22.0541L34.1084 23.6258V13.3011C35.0578 13.1077 36.129 12.8901 36.9811 12.745Z" fill="url(#paint5_linear)"/>
<path opacity="0.6" d="M36.1291 10.6414L33.4268 12.3824L26.44 8.39273L24.9062 7.49809L27.7789 5.87805L27.8763 5.90223L36.1291 10.6414Z" fill="url(#paint6_linear)"/>
<defs>
<linearGradient id="paint0_linear" x1="0.68227" y1="4.62847" x2="41.0748" y2="43.3483" gradientUnits="userSpaceOnUse">
<stop stop-color="#FF6646"/>
<stop offset="0.505" stop-color="#FF3571"/>
<stop offset="1" stop-color="#AF28C0"/>
</linearGradient>
<linearGradient id="paint1_linear" x1="12.0763" y1="6.1755" x2="4.5923" y2="10.3707" gradientUnits="userSpaceOnUse">
<stop stop-color="#1B1464" stop-opacity="0.8"/>
<stop offset="1" stop-color="#FF0D8A" stop-opacity="0"/>
</linearGradient>
<linearGradient id="paint2_linear" x1="1.80067" y1="23.8614" x2="1.80067" y2="14.6443" gradientUnits="userSpaceOnUse">
<stop stop-color="#1B1464" stop-opacity="0.8"/>
<stop offset="1" stop-color="#FF0D8A" stop-opacity="0"/>
</linearGradient>
<linearGradient id="paint3_linear" x1="9.10697" y1="35.0532" x2="16.2147" y2="39.9063" gradientUnits="userSpaceOnUse">
<stop stop-color="#1B1464" stop-opacity="0.8"/>
<stop offset="1" stop-color="#FF0D8A" stop-opacity="0"/>
</linearGradient>
<linearGradient id="paint4_linear" x1="28.8624" y1="34.9142" x2="20.6023" y2="40.112" gradientUnits="userSpaceOnUse">
<stop stop-color="#1B1464" stop-opacity="0.8"/>
<stop offset="1" stop-color="#FF0D8A" stop-opacity="0"/>
</linearGradient>
<linearGradient id="paint5_linear" x1="35.5533" y1="23.9927" x2="35.5533" y2="14.336" gradientUnits="userSpaceOnUse">
<stop stop-color="#1B1464" stop-opacity="0.8"/>
<stop offset="1" stop-color="#FF0D8A" stop-opacity="0"/>
</linearGradient>
<linearGradient id="paint6_linear" x1="25.4511" y1="5.94904" x2="33.7675" y2="11.1523" gradientUnits="userSpaceOnUse">
<stop stop-color="#1B1464" stop-opacity="0.8"/>
<stop offset="1" stop-color="#FF0D8A" stop-opacity="0"/>
</linearGradient>
</defs>
</svg>
