<svg width="92" height="30" viewBox="0 0 92 30" fill="none" xmlns="http://www.w3.org/2000/svg">
<path d="M13.4036 15.1953V22.5629L19.8036 18.8621V11.4945L13.4036 15.1953ZM6.52832 11.4945V18.8621L12.8943 22.5459V15.1783L6.52832 11.4945ZM6.52832 11.4945V18.8621L12.8943 22.5459V15.1783L6.52832 11.4945ZM13.4036 15.1953V22.5629L19.8036 18.8621V11.4945L13.4036 15.1953ZM13.4036 15.1953V22.5629L19.8036 18.8621V11.4945L13.4036 15.1953ZM6.52832 11.4945V18.8621L12.8943 22.5459V15.1783L6.52832 11.4945ZM6.52832 11.4945V18.8621L12.8943 22.5459V15.1783L6.52832 11.4945ZM13.4036 15.1953V22.5629L19.8036 18.8621V11.4945L13.4036 15.1953ZM13.4036 15.1953V22.5629L19.8036 18.8621V11.4945L13.4036 15.1953ZM6.52832 11.4945V18.8621L12.8943 22.5459V15.1783L6.52832 11.4945ZM6.52832 11.4945V18.8621L12.8943 22.5459V15.1783L6.52832 11.4945ZM13.4036 15.1953V22.5629L19.8036 18.8621V11.4945L13.4036 15.1953ZM13.4036 15.1953V22.5629L19.8036 18.8621V11.4945L13.4036 15.1953ZM6.52832 18.8621L12.8943 22.5459V15.1783L6.52832 11.4945V18.8621ZM25.3038 7.26746L19.549 3.95713L19.498 3.92318L13.149 0.256348L7.03761 3.78737H7.02063L2.64081 6.3168L0.382996 7.62395V22.3761L6.52832 25.9241L12.4699 29.3533L13.132 29.7437L13.7941 29.3533L19.7866 25.8902L25.881 22.3761V7.62395L25.3038 7.26746ZM23.9118 16.3666L19.8036 18.8621V23.5645L18.802 24.1416L13.5394 27.1804L13.149 27.418L12.7925 27.2143L6.52832 23.5984V18.8621L2.36919 16.3327V8.76135L2.94638 8.42183L8.02222 5.48497L9.00683 4.92476L13.149 7.35234L6.78297 11.0361L13.166 14.7199L19.549 11.0361L13.166 7.35234L17.4609 5.04359L18.5304 5.65473L23.4025 8.47276L23.8778 8.74437V16.3666H23.9118ZM13.4036 22.5629L19.8036 18.8621V11.4945L13.4036 15.1953V22.5629ZM6.52832 18.8621L12.8943 22.5459V15.1783L6.52832 11.4945V18.8621ZM6.52832 11.4945V18.8621L12.8943 22.5459V15.1783L6.52832 11.4945ZM13.4036 15.1953V22.5629L19.8036 18.8621V11.4945L13.4036 15.1953ZM13.4036 15.1953V22.5629L19.8036 18.8621V11.4945L13.4036 15.1953ZM6.52832 11.4945V18.8621L12.8943 22.5459V15.1783L6.52832 11.4945ZM6.52832 11.4945V18.8621L12.8943 22.5459V15.1783L6.52832 11.4945ZM13.4036 15.1953V22.5629L19.8036 18.8621V11.4945L13.4036 15.1953ZM13.4036 15.1953V22.5629L19.8036 18.8621V11.4945L13.4036 15.1953ZM6.52832 11.4945V18.8621L12.8943 22.5459V15.1783L6.52832 11.4945ZM6.52832 11.4945V18.8621L12.8943 22.5459V15.1783L6.52832 11.4945ZM13.4036 15.1953V22.5629L19.8036 18.8621V11.4945L13.4036 15.1953ZM13.4036 15.1953V22.5629L19.8036 18.8621V11.4945L13.4036 15.1953ZM6.52832 11.4945V18.8621L12.8943 22.5459V15.1783L6.52832 11.4945Z" fill="url(#paint0_linear)"/>
<path d="M36.526 20.5257L34.455 16.9098H33.1308V20.5257H30.7881V9.71198H35.1001C37.1372 9.71198 38.7839 11.3587 38.7839 13.3958C38.7839 14.686 38.003 15.9082 36.7977 16.5024L36.7298 16.5363L39.0385 20.5257H36.526ZM33.1478 14.8897H35.117C35.864 14.8897 36.4581 14.2276 36.4581 13.3958C36.4581 12.564 35.864 11.9019 35.117 11.9019H33.1478V14.8897Z" fill="#0A053A"/>
<path d="M43.5711 20.7465C42.1451 20.7465 40.7191 19.7619 40.7191 17.572V12.8356H42.909V17.2324C42.909 18.3359 43.656 18.7433 44.352 18.7433C45.3366 18.7433 45.8968 18.1322 45.8968 17.0457V12.8356H48.0867V20.5258H45.8968V19.6261L45.744 19.8298C45.3196 20.407 44.5387 20.7465 43.5711 20.7465Z" fill="#0A053A"/>
<path d="M55.2167 20.7464C54.249 20.7464 53.4681 20.4408 52.9419 19.8127L52.8061 19.643V20.5088H50.6161V9.69501H52.8061V13.7014L52.9419 13.5316C53.4851 12.9205 54.249 12.5979 55.2167 12.5979C57.2708 12.5979 58.8835 14.3804 58.8835 16.6552C58.8835 18.93 57.2708 20.7464 55.2167 20.7464ZM54.7413 14.686C53.57 14.686 52.7891 15.4838 52.7891 16.6722C52.7891 17.8605 53.57 18.6584 54.7413 18.6584C55.9127 18.6584 56.6936 17.8605 56.6936 16.6722C56.6936 15.4838 55.9127 14.686 54.7413 14.686Z" fill="#0A053A"/>
<path d="M61.0055 20.5257V12.8356H63.1954V20.5257H61.0055ZM62.1089 11.9868C61.379 11.9868 60.7848 11.3756 60.7848 10.6626C60.7848 9.94964 61.3959 9.3385 62.1089 9.3385C62.8389 9.3385 63.4331 9.94964 63.4331 10.6626C63.4331 11.3756 62.8219 11.9868 62.1089 11.9868Z" fill="#0A053A"/>
<path d="M67.8299 20.5257V11.9698H65.0118V9.71198H73.0076V11.9698H70.1895V20.5257H67.8299Z" fill="#0A053A"/>
<path d="M76.6744 20.7464C74.6203 20.7464 73.0076 18.9639 73.0076 16.6891C73.0076 14.4143 74.6203 12.6318 76.6744 12.6318C77.642 12.6318 78.4229 12.9374 78.9492 13.5655L79.085 13.7353V12.8695H81.2749V20.5596H79.085V19.6939L78.9492 19.8636C78.4229 20.4408 77.659 20.7464 76.6744 20.7464ZM77.1497 14.6859C75.9784 14.6859 75.1975 15.4838 75.1975 16.6721C75.1975 17.8605 75.9784 18.6583 77.1497 18.6583C78.3211 18.6583 79.102 17.8605 79.102 16.6721C79.102 15.4838 78.3211 14.6859 77.1497 14.6859Z" fill="#0A053A"/>
<path d="M88.5237 20.5258L87.0128 18.4038L85.5189 20.5258H83.0065L85.7566 16.6213L83.1083 12.8526H85.6038L87.0128 14.8558L88.4218 12.8526H90.9173L88.269 16.6213L91.0192 20.5258H88.5237Z" fill="#0A053A"/>
<path opacity="0.6" d="M9.00787 4.9418L8.02326 5.51898L2.94742 8.43886L2.62488 6.31685L7.02167 3.77045H7.03865L9.00787 4.9418Z" fill="url(#paint1_linear)"/>
<path opacity="0.6" d="M2.37018 9.15178V16.3326L0.367004 15.1783V8.81226L2.37018 9.15178Z" fill="url(#paint2_linear)"/>
<path opacity="0.6" d="M12.7935 27.2313L12.4709 29.3533L6.51233 25.9072V23.6154L12.7935 27.2313Z" fill="url(#paint3_linear)"/>
<path opacity="0.6" d="M19.8046 23.5815V25.8902L13.8121 29.3533L13.5235 27.1974L18.8031 24.1587L19.8046 23.5815Z" fill="url(#paint4_linear)"/>
<path opacity="0.6" d="M25.899 8.74438V15.2802L23.8958 16.3836V9.13483C24.5579 8.99902 25.3048 8.84624 25.899 8.74438Z" fill="url(#paint5_linear)"/>
<path opacity="0.6" d="M25.3048 7.2675L23.4205 8.48978L18.5484 5.68873L17.4789 5.06061L19.4821 3.92322L19.55 3.94019L25.3048 7.2675Z" fill="url(#paint6_linear)"/>
<defs>
<linearGradient id="paint0_linear" x1="0.587048" y1="3.04594" x2="28.937" y2="30.0379" gradientUnits="userSpaceOnUse">
<stop stop-color="#FF6646"/>
<stop offset="0.505" stop-color="#FF3571"/>
<stop offset="1" stop-color="#AF28C0"/>
</linearGradient>
<linearGradient id="paint1_linear" x1="8.53181" y1="4.13209" x2="3.29611" y2="7.04709" gradientUnits="userSpaceOnUse">
<stop stop-color="#1B1464" stop-opacity="0.8"/>
<stop offset="1" stop-color="#FF0D8A" stop-opacity="0"/>
</linearGradient>
<linearGradient id="paint2_linear" x1="1.36661" y1="16.549" x2="1.36661" y2="10.0779" gradientUnits="userSpaceOnUse">
<stop stop-color="#1B1464" stop-opacity="0.8"/>
<stop offset="1" stop-color="#FF0D8A" stop-opacity="0"/>
</linearGradient>
<linearGradient id="paint3_linear" x1="6.46162" y1="24.4066" x2="11.4394" y2="27.7823" gradientUnits="userSpaceOnUse">
<stop stop-color="#1B1464" stop-opacity="0.8"/>
<stop offset="1" stop-color="#FF0D8A" stop-opacity="0"/>
</linearGradient>
<linearGradient id="paint4_linear" x1="20.2374" y1="24.309" x2="14.4552" y2="27.9229" gradientUnits="userSpaceOnUse">
<stop stop-color="#1B1464" stop-opacity="0.8"/>
<stop offset="1" stop-color="#FF0D8A" stop-opacity="0"/>
</linearGradient>
<linearGradient id="paint5_linear" x1="24.9034" y1="16.6412" x2="24.9034" y2="9.86143" gradientUnits="userSpaceOnUse">
<stop stop-color="#1B1464" stop-opacity="0.8"/>
<stop offset="1" stop-color="#FF0D8A" stop-opacity="0"/>
</linearGradient>
<linearGradient id="paint6_linear" x1="17.8588" y1="3.97306" x2="23.6801" y2="7.5906" gradientUnits="userSpaceOnUse">
<stop stop-color="#1B1464" stop-opacity="0.8"/>
<stop offset="1" stop-color="#FF0D8A" stop-opacity="0"/>
</linearGradient>
</defs>
</svg>
